<?xml version="1.0" standalone="no"?>
<!DOCTYPE svg PUBLIC "-//W3C//DTD SVG 1.1//EN" "http://www.w3.org/Graphics/SVG/1.1/DTD/svg11.dtd">
<svg t="1627566486888" class="icon" viewBox="0 0 1024 1024" version="1.1" xmlns="http://www.w3.org/2000/svg" p-id="4725" width="200" height="200"><path d="M410.178401 613.825154a144 144 0 1 0 203.643198-203.650308 144 144 0 1 0-203.643198 203.650308Z" fill="#40C4FF" p-id="4726"></path><path d="M512 664a150.96 150.96 0 0 1-107.488-44.528c-59.264-59.264-59.264-155.68 0-214.96C433.216 375.808 471.392 360 512 360s78.784 15.808 107.488 44.528c59.264 59.264 59.264 155.68 0 214.96A151.008 151.008 0 0 1 512 664z m0-288a135.104 135.104 0 0 0-96.176 39.84c-53.024 53.024-53.024 139.312 0 192.336 25.68 25.68 59.84 39.84 96.176 39.84s70.48-14.144 96.176-39.84c53.024-53.024 53.024-139.312 0-192.336A135.104 135.104 0 0 0 512 376z" fill="#263238" p-id="4727"></path><path d="M172.585956 263.095624a64 64 0 1 0 90.508088-90.511248 64 64 0 1 0-90.508088 90.511248Z" fill="#FFD740" p-id="4728"></path><path d="M217.84 289.84a71.52 71.52 0 0 1-50.912-21.088 72.064 72.064 0 0 1 0-101.824c13.6-13.6 31.664-21.088 50.912-21.088s37.312 7.488 50.912 21.088a72.064 72.064 0 0 1 0 101.824 71.52 71.52 0 0 1-50.912 21.088z m0-128c-14.96 0-29.008 5.824-39.6 16.4a56.08 56.08 0 0 0 0 79.2c21.152 21.152 58.032 21.152 79.184 0a56.08 56.08 0 0 0 0-79.2 55.568 55.568 0 0 0-39.584-16.4z" fill="#263238" p-id="4729"></path><path d="M760.889955 851.408996a64 64 0 1 0 90.508089-90.511247 64 64 0 1 0-90.508089 90.511247Z" fill="#FFD740" p-id="4730"></path><path d="M806.16 878.16a71.52 71.52 0 0 1-50.912-21.088 72.064 72.064 0 0 1 0-101.824c13.6-13.6 31.664-21.088 50.912-21.088s37.312 7.488 50.912 21.088a72.064 72.064 0 0 1 0 101.824 71.52 71.52 0 0 1-50.912 21.088z m0-128c-14.96 0-29.008 5.824-39.6 16.4a56.08 56.08 0 0 0 0 79.2c21.152 21.152 58.032 21.152 79.184 0a56.08 56.08 0 0 0 0-79.2 55.632 55.632 0 0 0-39.584-16.4zM359.264 367.264a8.032 8.032 0 0 1-5.664-2.336l-62.224-62.224a8 8 0 0 1 11.312-11.312l62.224 62.224a8 8 0 0 1-5.648 13.648z" fill="#263238" p-id="4731"></path><path d="M359.264 367.264h-45.264a8 8 0 0 1 0-16h37.264v-37.248a8 8 0 0 1 16 0v45.248a8 8 0 0 1-8 8zM726.96 734.96a8.032 8.032 0 0 1-5.664-2.336L659.072 670.4a8 8 0 0 1 11.312-11.312l62.224 62.224a8 8 0 0 1-5.648 13.648z" fill="#263238" p-id="4732"></path><path d="M664.736 717.984a8 8 0 0 1-8-8v-45.248a8 8 0 0 1 8-8h45.264a8 8 0 0 1 0 16h-37.264v37.248a8 8 0 0 1-8 8z" fill="#263238" p-id="4733"></path><path d="M760.894642 263.10031a64 64 0 1 0 90.508088-90.511247 64 64 0 1 0-90.508088 90.511247Z" fill="#FFD740" p-id="4734"></path><path d="M806.16 289.84a71.52 71.52 0 0 1-50.912-21.088 72.064 72.064 0 0 1 0-101.824c13.6-13.6 31.664-21.088 50.912-21.088s37.312 7.488 50.912 21.088a72.064 72.064 0 0 1 0 101.824 71.52 71.52 0 0 1-50.912 21.088z m0-128c-14.96 0-29.008 5.824-39.6 16.4a56.08 56.08 0 0 0 0 79.2c21.152 21.152 58.032 21.152 79.184 0a56.08 56.08 0 0 0 0-79.2 55.632 55.632 0 0 0-39.584-16.4z" fill="#263238" p-id="4735"></path><path d="M172.585956 851.415624a64 64 0 1 0 90.508088-90.511248 64 64 0 1 0-90.508088 90.511248Z" fill="#FFD740" p-id="4736"></path><path d="M217.84 878.16a71.52 71.52 0 0 1-50.912-21.088 72.064 72.064 0 0 1 0-101.824c13.6-13.6 31.664-21.088 50.912-21.088s37.312 7.488 50.912 21.088a72.064 72.064 0 0 1 0 101.824 71.52 71.52 0 0 1-50.912 21.088z m0-128c-14.96 0-29.008 5.824-39.6 16.4a56.08 56.08 0 0 0 0 79.2c21.152 21.152 58.032 21.152 79.184 0a56.08 56.08 0 0 0 0-79.2 55.568 55.568 0 0 0-39.584-16.4zM664.736 367.264a8 8 0 0 1-5.664-13.648l62.224-62.224a8 8 0 0 1 11.312 11.312l-62.224 62.224a7.968 7.968 0 0 1-5.648 2.336z" fill="#263238" p-id="4737"></path><path d="M709.984 367.264h-45.248a8 8 0 0 1-8-8v-45.264a8 8 0 0 1 16 0v37.264h37.248a8 8 0 0 1 0 16zM297.04 734.96a8 8 0 0 1-5.664-13.648l62.224-62.224a8 8 0 0 1 11.312 11.312l-62.224 62.224a7.968 7.968 0 0 1-5.648 2.336z" fill="#263238" p-id="4738"></path><path d="M359.264 718a8 8 0 0 1-8-8v-37.264h-37.248a8 8 0 0 1 0-16h45.248a8 8 0 0 1 8 8v45.264a8 8 0 0 1-8 8z" fill="#263238" p-id="4739"></path><path d="M512 96m-64 0a64 64 0 1 0 128 0 64 64 0 1 0-128 0Z" fill="#FFD740" p-id="4740"></path><path d="M512 168c-39.696 0-72-32.304-72-72s32.304-72 72-72 72 32.304 72 72-32.304 72-72 72z m0-128c-30.88 0-56 25.12-56 56s25.12 56 56 56 56-25.12 56-56-25.12-56-56-56z" fill="#263238" p-id="4741"></path><path d="M512 928m-64 0a64 64 0 1 0 128 0 64 64 0 1 0-128 0Z" fill="#FFD740" p-id="4742"></path><path d="M512 1000c-39.696 0-72-32.304-72-72s32.304-72 72-72 72 32.304 72 72-32.304 72-72 72z m0-128c-30.88 0-56 25.12-56 56s25.12 56 56 56 56-25.12 56-56-25.12-56-56-56zM512 304a8 8 0 0 1-8-8V208a8 8 0 0 1 16 0v88a8 8 0 0 1-8 8z" fill="#263238" p-id="4743"></path><path d="M512 304a8.032 8.032 0 0 1-5.664-2.336l-32-32a8 8 0 0 1 11.312-11.312L512 284.688l26.336-26.336a8 8 0 0 1 11.312 11.312l-32 32A7.968 7.968 0 0 1 512 304zM512 824a8 8 0 0 1-8-8v-88a8 8 0 0 1 16 0V816a8 8 0 0 1-8 8z" fill="#263238" p-id="4744"></path><path d="M544 768a8.032 8.032 0 0 1-5.664-2.336L512 739.312l-26.336 26.336a8 8 0 0 1-11.312-11.312l32-32a8 8 0 0 1 11.312 0l32 32A8 8 0 0 1 544 768z" fill="#263238" p-id="4745"></path><path d="M928 512m-64 0a64 64 0 1 0 128 0 64 64 0 1 0-128 0Z" fill="#FFD740" p-id="4746"></path><path d="M928 584c-39.696 0-72-32.304-72-72s32.304-72 72-72 72 32.304 72 72-32.304 72-72 72z m0-128c-30.88 0-56 25.12-56 56s25.12 56 56 56 56-25.12 56-56-25.12-56-56-56z" fill="#263238" p-id="4747"></path><path d="M96 512m-64 0a64 64 0 1 0 128 0 64 64 0 1 0-128 0Z" fill="#FFD740" p-id="4748"></path><path d="M96 584c-39.696 0-72-32.304-72-72s32.304-72 72-72 72 32.304 72 72-32.304 72-72 72z m0-128c-30.88 0-56 25.12-56 56s25.12 56 56 56 56-25.12 56-56-25.12-56-56-56zM111.296 408.368a8 8 0 0 1-7.712-10.144 422.944 422.944 0 0 1 39.136-94.592 8 8 0 1 1 13.936 7.888 404.784 404.784 0 0 0-37.664 90.992 7.968 7.968 0 0 1-7.696 5.856zM307.584 157.712a8 8 0 0 1-3.952-14.976 422.384 422.384 0 0 1 94.592-39.152 8 8 0 1 1 4.272 15.424 406.08 406.08 0 0 0-91.008 37.664 7.76 7.76 0 0 1-3.904 1.04zM716.416 157.712a8.112 8.112 0 0 1-3.936-1.024 405.344 405.344 0 0 0-90.992-37.664 8 8 0 0 1 4.272-15.424 422.08 422.08 0 0 1 94.576 39.152 8 8 0 0 1-3.92 14.96z" fill="#263238" p-id="4749"></path><path d="M912.704 408.352a7.968 7.968 0 0 1-7.696-5.856 406.144 406.144 0 0 0-37.664-90.976 8.016 8.016 0 0 1 13.936-7.888 421.76 421.76 0 0 1 39.136 94.576 8 8 0 0 1-7.712 10.144z" fill="#263238" p-id="4750"></path><path d="M874.304 724.416a8 8 0 0 1-6.96-11.936 404.784 404.784 0 0 0 37.664-90.992 8 8 0 1 1 15.408 4.288 422.944 422.944 0 0 1-39.136 94.592 8.064 8.064 0 0 1-6.976 4.048z" fill="#263238" p-id="4751"></path><path d="M623.648 920.704a8 8 0 0 1-2.128-15.712 406.832 406.832 0 0 0 90.992-37.664 8.016 8.016 0 0 1 7.888 13.936 421.76 421.76 0 0 1-94.576 39.152 8.96 8.96 0 0 1-2.176 0.288z" fill="#263238" p-id="4752"></path><path d="M400.352 920.704a8.32 8.32 0 0 1-2.144-0.288 422.08 422.08 0 0 1-94.576-39.152 8 8 0 0 1 7.888-13.936 405.344 405.344 0 0 0 90.992 37.664 8 8 0 0 1-2.16 15.712z" fill="#263238" p-id="4753"></path><path d="M149.696 724.416a8 8 0 0 1-6.976-4.064 422.4 422.4 0 0 1-39.136-94.576 8 8 0 0 1 15.408-4.272 406.56 406.56 0 0 0 37.664 90.992 8 8 0 0 1-6.96 11.92z" fill="#263238" p-id="4754"></path><path d="M816 520h-88a8 8 0 0 1 0-16H816a8 8 0 0 1 0 16z" fill="#263238" p-id="4755"></path><path d="M760 552a8.032 8.032 0 0 1-5.664-2.336l-32-32a8 8 0 0 1 0-11.312l32-32a8 8 0 0 1 11.312 11.312L739.312 512l26.336 26.336a8 8 0 0 1-5.648 13.664z" fill="#263238" p-id="4756"></path><path d="M296 520H208a8 8 0 0 1 0-16h88a8 8 0 0 1 0 16z" fill="#263238" p-id="4757"></path><path d="M264 552a8 8 0 0 1-5.664-13.648L284.688 512l-26.336-26.336a8 8 0 0 1 11.312-11.312l32 32a8 8 0 0 1 0 11.312l-32 32a8.032 8.032 0 0 1-5.664 2.336z" fill="#263238" p-id="4758"></path></svg>
